<?xml version="1.0" encoding="utf-8"?>
<!-- Generator: Adobe Illustrator 18.1.1, SVG Export Plug-In . SVG Version: 6.00 Build 0)  -->
<svg version="1.1" id="Layer_1" xmlns="http://www.w3.org/2000/svg" xmlns:xlink="http://www.w3.org/1999/xlink" x="0px" y="0px"
	 viewBox="105.9 101.1 197.4 198.9" enable-background="new 105.9 101.1 197.4 198.9" xml:space="preserve">
<path fill="#7F5736" d="M184.2,102.7c-0.7-3.1-6.6-1.2-8,0.7c-12.7,17.6-24.6,35.6-14.1,54.8c0.9,1.7,25.3,7.8,26.3,3
	C193.1,140.2,190.2,129.8,184.2,102.7"/>
<path fill="#7C5331" d="M154,207.3c29.6,19.5,43.1,63.8,26.8,92.7h122.4c0.3-61.8-42.7-114.8-83.1-162.4c-2.3-2.7-19.4-0.6-22.6,1.1
	c-1.2,0-2.4,0.2-3.3,0.6c-24.6,11.2-42.5,41-47.3,63.4C146.2,205.5,150,207.2,154,207.3"/>
<path fill="#68452B" d="M154,207.3c18.8,12.3,31.1,34.7,33.4,56.8c12.3-7.4,24-15.5,34.2-24.5c8.8-7.7,27-20.2,25.2-33.4
	c-2.1-16.7-12.5-38.1-27.4-47.5c-7.5-4.8-9.2-13.8-7.5-22.4c-5.7,0.2-12.6,1.3-14.5,2.3c-1.2,0-2.4,0.2-3.3,0.6
	c-24.6,11.2-42.5,41-47.3,63.4C146.2,205.5,150,207.2,154,207.3"/>
<path fill="#8C6239" d="M229.1,149c-12.2-24.5-56.8-34.6-70.2-10.7s-49.4,90.4-51,98.6c-1.6,8.1,5.6,12.1,10,14.8
	c5.8,4.4,17.2,8.6,20.3,8.7c3.2,0.1,5.2-0.6,10.6-5c5.4-4.4,14.3-18,17.1-21.5c8.5-8.6,17-16.2,28.5-21.3
	c8.2-3.6,18.7-5.7,25.6-11.8C235.8,186.8,238.2,167.4,229.1,149"/>
<path fill="#7F5736" d="M120.7,253.6c6.2-15.1,14.1-29.4,21.5-44.1c7.7-15.3,15.3-30.8,25.7-44.5c12.4-16.3,24.8-28.6,41.2-34.6
	c-17.9-8.8-41.1-8.2-50.2,7.9c-13.4,23.9-49.4,90.4-51,98.6c-1.6,8.1,5.6,12.1,10,14.8C118.7,252.3,119.7,252.9,120.7,253.6"/>
<g>
	<path fill="#C2986B" d="M105.8,241.2c0-12.2,10.4-11.9,24.5-11.9s26.7-0.2,26.7,11.9c0,12.2-11.5,22-25.6,22
		C117.2,263.3,105.8,253.4,105.8,241.2"/>
	<path fill="#C2986B" d="M136.6,238.9c0-6.4,5.4-6.3,12.8-6.3s14-0.1,14,6.3c0,6.4-6,11.6-13.4,11.6
		C142.6,250.5,136.6,245.3,136.6,238.9"/>
</g>
<path fill="#604832" d="M134.6,242.6c0-4.2,3.5-4.1,8.4-4.1c4.9,0,9.1-0.1,9.1,4.1c0,4.2-3.9,7.5-8.7,7.5
	C138.5,250.1,134.6,246.8,134.6,242.6"/>
<path fill="#FFFFFF" d="M205.3,167.8c0,9.2-6.7,16.6-15.1,16.6c-8.4,0-15.1-7.4-15.1-16.6c0-9.2,6.8-16.6,15.1-16.6
	S205.3,158.6,205.3,167.8"/>
<path fill="#25333A" d="M200,167.8c0,4.8-4.4,8.7-9.8,8.7c-5.4,0-9.8-3.9-9.8-8.7s4.4-8.7,9.8-8.7C195.7,159.1,200,163,200,167.8"/>
<path fill="#604832" d="M301.1,250.9c0.3-0.4,0.4-0.8,0.3-1.3c-0.6-1.9-1.2-3.8-1.9-5.6c1.6-5.8-1.3-11.3-5-16.3
	c1.1-0.2,1.9-0.9,1.7-2.1c-1.9-11.1-8.1-19.5-14.3-28.3c1.5,0.5,5.4,0.2,4.4-2c-6-12.5-12.5-18.8-22.1-26.9c0.1-0.3,0.1-0.5-0.1-0.9
	c3.1-0.7,6.1-1.5,9.2-2.7c2.8-1.1-0.3-3.5-1.9-3.7c-9.8-1.1-17.7-7.4-23.6-14.9c2.4,0.4,4.7,1,7,1.9c1.4,0.4,5.5-0.4,3.8-2.6
	c-9.8-12.8-22.6-16.5-37.1-18.7c1.1-0.3,2.2-0.6,3.3-1c2.3-0.3,3.4-2.3,1.1-3.6c-9.3-5.5-16.2-0.9-25.4-1.6c-2.3-0.6-4.6-1-7.1-1
	c-0.1,0-0.2,0.1-0.3,0.1c0.4-1.1-0.4-2.5-2.6-2.7c-9.2-0.9-17.5-1.5-26,2.5c-2.7,1.3,0.2,3.5,1.9,3.7c0.1,0,0.3,0,0.4,0
	c-6.4,2-12,4.6-15.2,12c-1,2.3,2.8,3.3,4.4,2.7c2.7-1,5.3-2.3,7.9-3.6c-1.9,4.1-2.3,9-2.5,14.2c-0.1,2.6,4.9,3.2,6.1,1.1
	c3.4-6.2,8.5-11.1,14.4-14.5c0.5-0.1,1.1-0.2,1.6-0.4c0.6,0.3,1.3,0.5,2.1,0.4c0.6-0.1,1.1-0.2,1.7-0.3c-1.2,1.1-2.5,2.4-3.6,3.7
	c-2,2.4,2.2,3.7,4,3.2c3.4-0.9,6.6-2.2,9.7-3.8c-0.3,0.9-0.6,1.7-0.9,2.6c-0.7,2.4,4,2.7,5.5,1.7c1.3,0.2,2.8,0,3.4-0.4
	c2.6-1.8,4.4-3.7,5.3-6c5.8,2.1,11.2,4.4,16.2,7.5c3.5,2.1,6.7,4.7,9.6,7.5c0.5,0.5,0.8,1.1,1.3,1.6c-1.5-0.1-3.1,0.5-3.4,1.5
	c-1.1,0.5-1.6,1.5-0.3,2.7c11.8,10.5,20.4,23.7,29.1,36.8c15.7,24.9,29,51.9,34.4,80.3c0.4,2.3,4.9,6.1,4.9,3.5
	C302.3,269.5,302.7,258.4,301.1,250.9"/>
<path fill="#8C6239" d="M242.1,112.7c0.2-3.2-6.1-2.9-7.9-1.5c-17,13.6-33.3,27.7-28.3,48.9c0.5,1.9,22.3,14.3,24.6,10
	C240.6,151.2,240.6,140.4,242.1,112.7"/>
</svg>
