<?xml version="1.0" encoding="utf-8"?>
<!-- Generator: Adobe Illustrator 18.1.1, SVG Export Plug-In . SVG Version: 6.00 Build 0)  -->
<svg version="1.1" id="Layer_1" xmlns="http://www.w3.org/2000/svg" xmlns:xlink="http://www.w3.org/1999/xlink" x="0px" y="0px"
	 viewBox="312.7 101.1 198.5 200" enable-background="new 312.7 101.1 198.5 200" xml:space="preserve">
<path fill="#F9A5A5" d="M350.7,250.9c0,0,2,22.4-4,31.2s-19.5,6.8-20.7,1.8c-1.2-5,3.2-26.4,3.2-26.4L350.7,250.9z"/>
<path fill="#7F5736" d="M391.5,102.7c-0.7-3.1-6.6-1.2-8,0.7c-12.8,17.7-24.7,35.8-14.2,55.1c0.9,1.7,25.4,7.8,26.4,3
	C400.4,140.4,397.5,130,391.5,102.7"/>
<path fill="#7C5331" d="M361.1,207.9c29.8,19.6,43.3,64.2,26.9,93.2h123.1c0.3-62.1-42.9-115.4-83.6-163.3
	c-2.3-2.7-19.5-0.6-22.7,1.1c-1.2,0-2.4,0.2-3.3,0.6c-24.7,11.3-42.7,41.2-47.6,63.8C353.2,206.1,357.1,207.8,361.1,207.9"/>
<path fill="#68452B" d="M361.1,207.9c18.9,12.4,31.3,34.9,33.6,57.1c12.4-7.4,24.1-15.6,34.4-24.6c8.8-7.7,27.1-20.3,25.3-33.6
	c-2.1-16.8-12.6-38.3-27.6-47.8c-7.5-4.8-9.3-13.9-7.5-22.5c-5.7,0.2-12.7,1.3-14.6,2.3c-1.2,0-2.4,0.2-3.3,0.6
	c-24.7,11.3-42.7,41.2-47.6,63.8C353.2,206.1,357.1,207.8,361.1,207.9"/>
<path fill="#8C6239" d="M436.6,149.3c-12.3-24.6-57.1-34.8-70.6-10.8c-13.5,24-49.7,90.9-51.3,99.1c-1.6,8.1,5.6,12.2,10.1,14.9
	c5.8,4.4,17.3,8.6,20.4,8.7c3.2,0.1,5.2-0.6,10.7-5c5.4-4.4,14.4-18.1,17.2-21.6c8.5-8.6,17.1-16.3,28.7-21.4
	c8.2-3.6,18.8-5.7,25.7-11.9C443.4,187.3,445.7,167.8,436.6,149.3"/>
<path fill="#7F5736" d="M327.6,254.4c6.2-15.2,14.2-29.6,21.6-44.3c7.7-15.4,15.4-31,25.8-44.7c12.5-16.4,24.9-28.8,41.4-34.8
	c-18-8.8-41.3-8.2-50.5,7.9c-13.5,24-49.7,90.9-51.3,99.1c-1.6,8.1,5.6,12.2,10.1,14.9C325.6,253.1,326.6,253.7,327.6,254.4"/>
<g>
	<path fill="#C2986B" d="M312.7,242c0-12.3,10.5-12,24.6-12c14.2,0,26.8-0.2,26.8,12c0,12.3-11.6,22.1-25.7,22.1
		C324.1,264.2,312.7,254.2,312.7,242"/>
	<path fill="#C2986B" d="M343.6,239.7c0-6.4,5.4-6.3,12.9-6.3c7.4,0,14.1-0.1,14.1,6.3s-6,11.7-13.5,11.7
		C349.7,251.3,343.6,246.1,343.6,239.7"/>
</g>
<path fill="#604832" d="M341.6,243.4c0-4.2,3.5-4.1,8.4-4.1s9.2-0.1,9.2,4.1c0,4.2-3.9,7.5-8.7,7.5
	C345.5,250.9,341.6,247.6,341.6,243.4"/>
<path fill="#FFFFFF" d="M412.7,168.2c0,9.3-6.7,16.7-15.2,16.7c-8.4,0-15.2-7.4-15.2-16.7c0-9.3,6.8-16.7,15.2-16.7
	S412.7,158.9,412.7,168.2"/>
<path fill="#25333A" d="M407.4,168.2c0,4.8-4.4,8.7-9.9,8.7c-5.4,0-9.9-3.9-9.9-8.7c0-4.8,4.4-8.7,9.9-8.7
	C403.1,159.4,407.4,163.3,407.4,168.2"/>
<path fill="#604832" d="M509,251.7c0.3-0.4,0.4-0.8,0.3-1.3c-0.6-1.9-1.2-3.8-1.9-5.6c1.6-5.8-1.3-11.4-5-16.4
	c1.1-0.2,1.9-0.9,1.7-2.1c-1.9-11.2-8.1-19.6-14.4-28.5c1.5,0.5,5.4,0.2,4.4-2c-6-12.6-12.6-18.9-22.2-27c0.1-0.3,0.1-0.5-0.1-0.9
	c3.1-0.7,6.1-1.5,9.3-2.7c2.8-1.1-0.3-3.5-1.9-3.7c-9.9-1.1-17.8-7.4-23.7-15c2.4,0.4,4.7,1,7,1.9c1.4,0.4,5.5-0.4,3.8-2.6
	c-9.9-12.9-22.7-16.6-37.3-18.8c1.1-0.3,2.2-0.6,3.3-1c2.3-0.3,3.4-2.3,1.1-3.6c-9.4-5.5-16.3-0.9-25.5-1.6c-2.3-0.6-4.6-1-7.1-1
	c-0.1,0-0.2,0.1-0.3,0.1c0.4-1.1-0.4-2.5-2.6-2.7c-9.3-0.9-17.6-1.5-26.1,2.5c-2.7,1.3,0.2,3.5,1.9,3.7c0.1,0,0.3,0,0.4,0
	c-6.4,2-12.1,4.6-15.3,12.1c-1,2.3,2.8,3.3,4.4,2.7c2.7-1,5.3-2.3,7.9-3.6c-1.9,4.1-2.3,9-2.5,14.3c-0.1,2.6,4.9,3.2,6.1,1.1
	c3.4-6.2,8.5-11.2,14.5-14.6c0.5-0.1,1.1-0.2,1.6-0.4c0.6,0.3,1.3,0.5,2.1,0.4c0.6-0.1,1.1-0.2,1.7-0.3c-1.2,1.1-2.5,2.4-3.6,3.7
	c-2,2.4,2.2,3.7,4,3.2c3.4-0.9,6.6-2.2,9.8-3.8c-0.3,0.9-0.6,1.7-0.9,2.6c-0.7,2.4,4,2.7,5.5,1.7c1.3,0.2,2.8,0,3.4-0.4
	c2.6-1.8,4.4-3.7,5.3-6c5.8,2.1,11.3,4.4,16.3,7.5c3.5,2.1,6.7,4.7,9.7,7.5c0.5,0.5,0.8,1.1,1.3,1.6c-1.5-0.1-3.1,0.5-3.4,1.5
	c-1.1,0.5-1.6,1.5-0.3,2.7c11.9,10.6,20.5,23.8,29.3,37c15.8,25,29.2,52.2,34.6,80.7c0.4,2.3,4.9,6.1,4.9,3.5
	C510.2,270.4,510.6,259.3,509,251.7"/>
<path fill="#8C6239" d="M449.7,112.8c0.2-3.2-6.1-2.9-7.9-1.5c-17.1,13.7-33.5,27.9-28.5,49.2c0.5,1.9,22.4,14.4,24.7,10.1
	C448.2,151.5,448.2,140.6,449.7,112.8"/>
</svg>
